<?xml version="1.0" standalone="no"?>
<!DOCTYPE svg PUBLIC "-//W3C//DTD SVG 20010904//EN"
 "http://www.w3.org/TR/2001/REC-SVG-20010904/DTD/svg10.dtd">
<svg version="1.0" xmlns="http://www.w3.org/2000/svg"
 width="512.000000pt" height="512.000000pt" viewBox="0 0 512.000000 512.000000"
 preserveAspectRatio="xMidYMid meet">

<g transform="translate(0.000000,512.000000) scale(0.100000,-0.100000)"
fill="#000000" stroke="none">
<path d="M320 5105 c-150 -37 -270 -159 -306 -310 -21 -90 -21 -4380 0 -4470
37 -154 157 -274 311 -311 90 -21 4380 -21 4470 0 154 37 274 157 311 311 11
51 14 340 14 1837 0 1300 -3 1784 -11 1802 -26 55 -112 55 -138 0 -8 -18 -11
-501 -11 -1798 0 -2003 7 -1840 -80 -1926 -86 -87 125 -80 -2320 -80 -2445 0
-2234 -7 -2320 80 -87 86 -80 -125 -80 2320 0 2445 -7 2234 80 2320 86 87
-125 80 2320 80 2445 0 2234 7 2320 -80 74 -73 80 -105 80 -395 l0 -242 26
-27 c15 -14 35 -26 45 -26 31 0 66 21 78 47 17 37 14 482 -3 558 -37 154 -157
274 -311 311 -87 20 -4391 19 -4475 -1z"/>
<path d="M1102 4339 c-110 -21 -232 -117 -286 -223 -105 -211 -14 -468 201
-568 122 -57 270 -50 388 18 47 27 124 105 152 154 65 112 71 264 15 383 -84
180 -273 275 -470 236z m203 -177 c192 -99 194 -371 3 -466 -204 -102 -435 98
-363 315 22 65 92 139 156 162 57 22 151 16 204 -11z"/>
<path d="M814 3228 c-12 -5 -27 -21 -33 -34 -8 -18 -11 -357 -11 -1198 l0
-1173 26 -27 27 -26 367 0 c356 0 368 1 394 21 l26 20 0 839 c0 804 -1 839
-19 861 -25 31 -83 32 -114 1 l-22 -23 -3 -779 -2 -780 -260 0 -260 0 0 1075
0 1075 259 0 260 0 3 -151 3 -151 29 -25 c23 -19 36 -24 60 -19 62 12 66 26
66 251 0 185 -2 205 -19 226 l-19 24 -369 2 c-241 1 -375 -2 -389 -9z"/>
<path d="M2013 3230 c-12 -5 -26 -18 -32 -29 -8 -14 -11 -384 -11 -1201 l0
-1181 25 -24 24 -25 371 0 371 0 24 25 25 24 0 580 c0 601 3 647 42 725 31 61
110 131 175 157 87 34 198 32 281 -6 77 -34 141 -102 174 -183 23 -57 23 -58
26 -669 l3 -612 26 -21 c25 -19 39 -20 393 -20 l367 0 27 26 26 27 0 862 c0
831 -1 865 -20 941 -70 271 -299 491 -604 579 -279 80 -636 11 -854 -165 l-62
-50 0 98 c-1 101 -7 119 -47 140 -26 14 -715 16 -750 2z m637 -336 l0 -186 29
-29 c51 -51 97 -33 148 58 110 197 291 305 561 334 171 18 286 -2 442 -79 79
-38 109 -60 180 -131 53 -53 98 -109 117 -147 63 -120 63 -108 63 -986 l0
-798 -259 0 -260 0 -4 563 c-3 534 -4 565 -24 623 -100 297 -416 433 -699 300
-89 -42 -190 -135 -232 -214 -60 -112 -62 -132 -62 -729 l0 -543 -260 0 -260
0 0 1075 0 1075 260 0 260 0 0 -186z"/>
</g>
</svg>
